<svg width="73" height="70" viewBox="0 0 73 70" fill="none" xmlns="http://www.w3.org/2000/svg">
<g id="Keranjang">
<path id="Vector" d="M68.2917 30.0007H68.3634C69.5984 30.0007 70.7139 30.5607 71.5106 31.4649C72.3339 32.3428 72.8438 33.5678 72.8438 34.9241V35.0057V35.0816C72.8438 36.4378 72.3339 37.6628 71.5106 38.5378C70.7112 39.442 69.5957 40.002 68.3608 40.002H68.2864H67.7553L63.6626 65.8699C63.4882 67.0321 62.9339 68.0846 62.1037 68.8303L62.0957 68.8361C61.3255 69.5624 60.3163 70.0057 59.2141 70.0057H13.6216C12.5194 70.0057 11.5102 69.5624 10.7347 68.8303L10.74 68.8361C9.91072 68.0978 9.35542 67.0523 9.17836 65.8961L9.1757 65.867L5.08307 39.9991H4.47754C3.24258 39.9991 2.12714 39.4391 1.33039 38.5349C0.908335 38.0859 0.572812 37.5483 0.343774 36.9541C0.114736 36.3598 -0.00313786 35.721 -0.00283756 35.0757V34.9182C-0.00283756 33.562 0.507081 32.337 1.33039 31.462C2.12979 30.5578 3.24524 29.9978 4.4802 29.9978H4.55456H4.5519L68.2917 30.0007ZM17.2388 61.2499C17.5369 61.2281 17.8277 61.1391 18.0932 60.9886C18.3586 60.8381 18.593 60.6292 18.7818 60.3749L18.7845 60.372C18.9867 60.1262 19.1401 59.8371 19.2352 59.5228C19.3303 59.2085 19.3649 58.8759 19.3369 58.5461V58.5549L18.1975 42.3032C18.1777 41.9759 18.0967 41.6565 17.9596 41.3649C17.8226 41.0734 17.6323 40.816 17.4008 40.6086L17.3981 40.6057C17.1744 40.3837 16.9111 40.2151 16.6249 40.1107C16.3387 40.0063 16.0359 39.9683 15.7356 39.9991H15.7436C15.4455 40.0209 15.1546 40.1098 14.8892 40.2603C14.6237 40.4109 14.3893 40.6198 14.2005 40.8741L14.1979 40.877C13.9957 41.1227 13.8422 41.4119 13.7471 41.7262C13.652 42.0405 13.6174 42.3731 13.6455 42.7028V42.6941L14.7848 58.9457C14.8235 59.5754 15.0847 60.1636 15.5125 60.5849L15.5152 60.5878C15.9252 61.0152 16.469 61.2533 17.0343 61.2528H17.0635H17.0608L17.2388 61.2499ZM31.8591 58.7532V42.4782C31.8594 42.1543 31.7997 41.8338 31.6837 41.5359C31.5678 41.2381 31.3979 40.9693 31.1845 40.7457C30.9807 40.511 30.7354 40.3243 30.4638 40.1969C30.1921 40.0696 29.8997 40.0042 29.6043 40.0049H29.5618C29.2669 40.0046 28.975 40.0702 28.7038 40.1975C28.4326 40.3249 28.1878 40.5114 27.9843 40.7457C27.7705 40.9696 27.6005 41.2389 27.4845 41.5373C27.3686 41.8356 27.3091 42.1568 27.3097 42.4811V58.7795C27.3097 59.462 27.5673 60.0774 27.9843 60.512C28.1881 60.7467 28.4334 60.9334 28.705 61.0608C28.9767 61.1881 29.2691 61.2535 29.5645 61.2528H29.607C29.9019 61.2531 30.1938 61.1875 30.465 61.0602C30.7362 60.9329 30.981 60.7463 31.1845 60.512C31.4012 60.2881 31.5737 60.0178 31.6916 59.7178C31.8094 59.4178 31.8701 59.0945 31.8697 58.7678V58.7503L31.8591 58.7532ZM45.518 58.7532V42.4782C45.5183 42.1543 45.4586 41.8338 45.3426 41.5359C45.2267 41.2381 45.0569 40.9693 44.8434 40.7457C44.6396 40.511 44.3943 40.3243 44.1227 40.1969C43.851 40.0696 43.5586 40.0042 43.2632 40.0049H43.2207C42.9258 40.0046 42.6339 40.0702 42.3627 40.1975C42.0916 40.3249 41.8468 40.5114 41.6432 40.7457C41.4295 40.9696 41.2594 41.2389 41.1435 41.5373C41.0275 41.8356 40.968 42.1568 40.9686 42.4811V58.7795C40.9686 59.462 41.2262 60.0774 41.6432 60.512C41.8471 60.7467 42.0923 60.9334 42.3639 61.0608C42.6356 61.1881 42.928 61.2535 43.2234 61.2528H43.2659C43.5608 61.2531 43.8527 61.1875 44.1239 61.0602C44.3951 60.9329 44.6399 60.7463 44.8434 60.512C45.0601 60.2881 45.2326 60.0178 45.3505 59.7178C45.4683 59.4178 45.529 59.0945 45.5286 58.7678V58.7503L45.518 58.7532ZM58.0376 58.9457L59.1769 42.6941C59.2026 42.3654 59.1669 42.0344 59.0719 41.7214C58.9769 41.4084 58.8247 41.1201 58.6245 40.8741L58.6272 40.877C58.4381 40.6233 58.2041 40.4144 57.9393 40.2629C57.6745 40.1115 57.3845 40.0208 57.0868 39.9961H57.0788C56.7795 39.9679 56.4781 40.0072 56.1932 40.1115C55.9082 40.2158 55.6456 40.383 55.4216 40.6028L55.4243 40.5999C55.1932 40.8075 55.003 41.0645 54.8651 41.3553C54.7273 41.6461 54.6446 41.9646 54.6222 42.2916V42.3003L53.4829 58.552C53.4571 58.8807 53.4929 59.2117 53.5879 59.5246C53.6829 59.8376 53.8351 60.126 54.0353 60.372L54.0326 60.3691C54.2217 60.6228 54.4557 60.8317 54.7205 60.9831C54.9853 61.1345 55.2753 61.2253 55.573 61.2499H55.7854C56.3517 61.2511 56.8966 61.013 57.3072 60.5849C57.7413 60.1646 58.0074 59.5738 58.0482 58.9399V58.9311L58.0376 58.9457ZM16.9307 11.4041L13.6242 27.4982H8.92871L12.5194 10.2724C12.9523 7.98281 14.0863 6.04323 15.6586 4.68698L15.6772 4.6724C17.2592 3.26285 19.2358 2.49634 21.273 2.5024H21.3739H21.3686H27.307V2.47906C27.307 1.79656 27.5646 1.18115 27.9816 0.746563C28.1856 0.510958 28.4311 0.323491 28.7033 0.195614C28.9754 0.0677365 29.2685 0.00213371 29.5645 0.00281284H43.2739C43.8953 0.00281284 44.4557 0.285729 44.8514 0.743646C45.0651 0.967552 45.2352 1.23687 45.3511 1.53521C45.4671 1.83355 45.5266 2.15468 45.526 2.47906V2.5024H51.5627C53.69 2.5024 55.642 3.31906 57.1718 4.68406L57.1559 4.66948C58.7673 6.04994 59.8821 8.01192 60.303 10.2082L60.3136 10.2695L63.9043 27.4953H59.2088L55.9023 11.4011C55.6614 10.2969 55.0957 9.31077 54.2929 8.59531L54.2849 8.58656C53.503 7.87807 52.5206 7.49127 51.5069 7.49281H45.518V7.51615C45.5183 7.84004 45.4586 8.16062 45.3426 8.45843C45.2267 8.75624 45.0569 9.02508 44.8434 9.24865C44.6396 9.48337 44.3943 9.67008 44.1227 9.79744C43.851 9.9248 43.5586 9.99014 43.2632 9.98948H29.5645C29.2696 9.98974 28.9776 9.92421 28.7065 9.79687C28.4353 9.66952 28.1905 9.48301 27.9869 9.24865C27.7732 9.02474 27.6032 8.75543 27.4872 8.45709C27.3712 8.15875 27.3117 7.83762 27.3123 7.51323V7.4899H21.3235C20.3073 7.48864 19.3227 7.87761 18.5401 8.58948L18.5481 8.58365C17.7506 9.29294 17.1879 10.2707 16.9466 11.3661L16.9413 11.4011L16.9307 11.4041Z" fill="#EA6932"/>
</g>
</svg>
